<?xml version="1.0" standalone="no"?>
<!DOCTYPE svg PUBLIC "-//W3C//DTD SVG 20010904//EN"
 "http://www.w3.org/TR/2001/REC-SVG-20010904/DTD/svg10.dtd">
<svg version="1.0" xmlns="http://www.w3.org/2000/svg"
 width="24.000000pt" height="24.000000pt" viewBox="0 0 24.000000 24.000000"
 preserveAspectRatio="xMidYMid meet">
<metadata>
Created by potrace 1.16, written by Peter Selinger 2001-2019
</metadata>
<g transform="translate(0.000000,24.000000) scale(0.002344,-0.002344)"
fill="#000000" stroke="none">
<path d="M4910 9107 l0 -457 -36 0 c-27 0 -37 5 -41 20 -3 11 -12 20 -20 20
-8 0 -17 9 -20 20 -3 11 -13 20 -23 20 -22 0 -17 -28 -75 440 -63 506 -67 501
-31 -45 13 -192 23 -351 22 -352 -6 -7 -56 12 -56 22 0 8 -10 15 -22 17 -15 2
-24 11 -26 26 -3 18 -10 22 -41 22 l-38 0 -16 78 c-9 42 -37 187 -63 322 -44
233 -54 278 -54 234 0 -21 56 -468 65 -521 6 -31 4 -33 -25 -33 -23 0 -30 5
-30 19 0 15 -10 20 -45 25 -27 5 -45 12 -45 20 0 8 -9 16 -20 19 -11 3 -20 12
-20 21 0 9 -8 16 -20 16 -14 0 -22 10 -29 38 -5 20 -28 109 -51 197 -22 87
-43 161 -45 164 -9 9 -4 -26 25 -174 35 -174 35 -175 15 -175 -8 0 -15 9 -15
20 0 17 -7 20 -41 20 -32 0 -42 4 -46 20 -3 11 -14 20 -24 20 -12 0 -19 7 -19
20 0 17 -7 20 -40 20 -33 0 -40 3 -40 20 0 13 -7 20 -18 20 -14 0 -23 15 -37
60 -22 74 -39 80 -19 8 7 -29 14 -54 14 -55 0 -2 -7 -3 -15 -3 -8 0 -15 6 -15
14 0 10 -13 16 -37 18 -31 2 -39 7 -41 26 -3 22 -5 22 -162 22 -157 0 -159 0
-162 -22 -2 -19 -10 -24 -45 -26 -31 -2 -43 -8 -43 -19 0 -8 -9 -17 -20 -20
-11 -3 -20 -14 -20 -24 0 -12 -7 -19 -19 -19 -15 0 -21 -10 -26 -40 -4 -24
-12 -40 -20 -40 -9 0 -16 -17 -21 -45 -4 -28 -11 -45 -20 -45 -9 0 -14 -12
-15 -32 -1 -18 -4 -46 -8 -62 -6 -27 -8 -25 -46 48 -60 114 -70 99 -13 -21 20
-41 23 -61 20 -135 -3 -80 -5 -88 -22 -88 -18 0 -20 -7 -20 -59 0 -54 -2 -59
-24 -63 -21 -4 -34 12 -121 151 -113 180 -104 166 -110 160 -2 -3 45 -95 105
-204 85 -154 110 -209 110 -237 0 -31 -4 -38 -20 -38 -17 0 -20 -7 -20 -47 0
-69 -11 -123 -24 -123 -6 0 -92 113 -191 250 -99 137 -184 250 -189 250 -4 0
-2 -10 6 -22 8 -13 90 -141 181 -285 161 -253 190 -313 152 -313 -11 0 -15
-14 -16 -57 -3 -138 14 -150 -268 193 -300 364 -269 329 -276 323 -3 -3 108
-160 245 -348 246 -337 250 -344 250 -392 0 -42 -3 -49 -19 -49 -16 0 -20 -8
-23 -41 l-3 -40 -329 351 c-181 193 -331 349 -333 346 -3 -3 137 -176 311
-386 l316 -380 0 -50 c0 -43 -3 -50 -20 -50 -14 0 -20 -7 -20 -21 0 -11 -4
-19 -9 -17 -5 2 -179 163 -386 358 -515 484 -516 483 -32 -32 175 -186 313
-338 308 -338 -6 0 -11 -6 -11 -14 0 -15 -42 -26 -105 -26 -40 0 -55 11 -385
285 -189 157 -346 282 -349 279 -3 -3 15 -25 40 -48 26 -22 169 -156 319 -296
l272 -255 -61 -3 c-53 -3 -61 -6 -61 -22 0 -16 -7 -20 -38 -20 -33 0 -72 25
-340 221 -167 122 -305 219 -308 216 -3 -3 112 -101 255 -218 197 -162 260
-219 260 -236 1 -22 -2 -23 -98 -23 -89 0 -100 -2 -103 -18 -2 -15 -45 8 -237
130 -327 209 -319 192 28 -58 l125 -89 -42 -3 c-33 -2 -42 -7 -42 -22 0 -18
-43 -24 -210 -33 -8 0 -66 27 -128 62 -63 34 -116 61 -118 58 -3 -3 45 -36
105 -75 119 -75 121 -82 25 -82 -39 0 -54 -4 -54 -14 0 -16 -43 -26 -110 -26
-39 0 -49 -4 -53 -20 -3 -12 -14 -20 -25 -20 -13 0 -19 -6 -18 -17 1 -14 -8
-19 -41 -21 -35 -3 -43 -7 -43 -23 0 -12 -7 -19 -20 -19 -14 0 -20 -7 -20 -21
0 -12 -8 -23 -20 -26 -14 -4 -20 -14 -20 -33 0 -49 -12 -90 -26 -90 -11 0 -14
-25 -14 -120 0 -100 3 -120 15 -120 8 0 15 -5 15 -11 0 -6 -9 -9 -20 -6 -11 3
-20 2 -20 -3 0 -4 11 -11 25 -14 22 -6 25 -12 25 -51 0 -38 3 -45 20 -45 17 0
20 -7 20 -40 0 -33 3 -40 20 -40 13 0 20 -7 20 -20 0 -13 7 -20 20 -20 17 0
20 -7 20 -40 0 -22 -5 -40 -11 -40 -9 0 -179 41 -234 57 -13 3 -17 2 -10 -5 6
-5 76 -31 158 -56 120 -38 147 -50 147 -65 0 -10 9 -21 20 -24 15 -4 20 -14
20 -41 0 -26 4 -36 16 -36 9 0 18 -9 21 -19 3 -11 13 -21 24 -24 15 -4 19 -14
19 -47 0 -39 -2 -42 -23 -37 -86 21 -453 87 -466 85 -9 -2 107 -34 257 -72
190 -48 272 -73 272 -82 0 -8 9 -14 20 -14 17 0 20 -7 20 -39 0 -33 4 -40 23
-43 14 -2 23 -11 25 -25 2 -13 9 -23 17 -23 7 0 15 -11 17 -25 4 -20 1 -25
-16 -25 -11 0 -162 18 -335 41 -173 22 -326 39 -340 37 -14 -2 141 -34 344
-72 204 -38 376 -71 383 -74 6 -2 12 -12 12 -22 0 -10 9 -20 20 -23 16 -4 20
-14 20 -46 0 -34 3 -41 20 -41 13 0 20 -7 20 -20 0 -11 -7 -20 -16 -20 -8 0
-191 12 -405 26 -215 14 -405 24 -422 22 -18 -2 162 -27 398 -56 237 -30 453
-59 480 -66 48 -12 50 -14 53 -48 2 -26 9 -37 23 -41 13 -3 19 -14 19 -31 l0
-26 -512 -1 c-282 0 -508 -2 -503 -5 10 -4 958 -64 1013 -64 27 0 32 -4 32
-25 0 -16 -6 -25 -15 -25 -10 0 -15 -11 -15 -35 0 -29 -5 -37 -27 -46 -16 -6
-237 -24 -493 -40 -256 -16 -474 -30 -485 -33 -11 -2 190 -4 448 -5 l467 -1 0
-25 c0 -18 -5 -25 -20 -25 -13 0 -20 -7 -20 -20 0 -13 -7 -20 -20 -20 -16 0
-20 -7 -20 -34 0 -41 48 -31 -450 -93 -212 -26 -367 -49 -344 -51 22 -2 178 6
347 18 374 25 397 25 397 5 0 -8 -7 -15 -15 -15 -8 0 -15 -7 -15 -16 0 -9 -9
-18 -19 -21 -14 -4 -21 -15 -23 -42 -2 -29 -8 -37 -25 -39 -15 -2 -23 -10 -23
-23 0 -10 -3 -19 -7 -19 -29 0 -610 -114 -618 -122 -6 -6 -1 -7 15 -4 14 3
135 19 270 36 135 16 257 32 273 35 20 3 27 0 27 -11 0 -9 -9 -18 -20 -21 -15
-4 -20 -14 -20 -40 0 -26 -5 -36 -20 -40 -11 -3 -20 -14 -20 -24 0 -12 -7 -19
-20 -19 -16 0 -20 -7 -20 -34 l0 -33 -207 -54 c-115 -29 -201 -55 -193 -56 8
-2 92 12 187 30 95 18 170 30 167 25 -3 -4 -14 -8 -25 -8 -16 0 -19 -7 -19
-40 0 -33 -3 -40 -20 -40 -13 0 -20 -7 -20 -20 0 -13 -7 -20 -20 -20 -17 0
-20 -7 -20 -40 0 -33 -3 -40 -20 -40 -13 0 -20 -7 -20 -19 0 -39 -13 -51 -71
-67 -33 -9 -62 -21 -66 -27 -4 -6 3 -8 18 -3 70 19 83 20 76 2 -4 -10 -7 -26
-7 -37 0 -10 -6 -19 -14 -19 -9 0 -15 -25 -20 -93 -8 -122 3 -277 20 -277 7 0
15 -18 19 -40 4 -26 12 -40 22 -40 8 0 17 -9 20 -20 3 -11 12 -20 20 -20 8 0
17 -9 20 -20 4 -16 14 -20 44 -20 35 0 39 -3 39 -25 0 -23 4 -25 45 -25 38 0
45 -3 45 -20 0 -17 7 -20 48 -20 l47 0 -73 -41 c-40 -23 -71 -43 -69 -46 3 -2
40 12 83 32 45 20 80 31 82 25 2 -6 38 -10 88 -10 77 0 84 -2 84 -20 0 -18 7
-20 58 -21 108 -1 104 -6 -83 -124 -96 -61 -175 -114 -175 -118 0 -8 44 15
270 141 111 62 117 63 167 57 36 -4 53 -11 53 -21 0 -10 15 -14 58 -15 129 -3
132 1 -90 -159 -110 -80 -227 -164 -260 -188 -33 -24 -58 -46 -55 -49 3 -2
130 75 281 171 l277 176 59 0 c53 0 60 -2 60 -20 0 -16 8 -19 53 -22 l54 -3
-314 -259 c-173 -142 -312 -261 -309 -264 3 -2 157 106 343 242 l338 246 63 0
c55 0 65 -3 69 -20 3 -13 14 -20 29 -20 19 0 -52 -71 -318 -321 -309 -290
-380 -360 -337 -333 8 4 186 151 397 326 210 175 384 318 387 318 3 0 5 -6 5
-14 0 -10 13 -16 41 -18 32 -2 44 -8 50 -25 7 -19 -36 -69 -351 -404 -198
-210 -358 -384 -355 -387 2 -3 64 51 137 120 73 69 239 225 368 346 l235 221
3 -39 c2 -25 8 -40 16 -40 16 0 31 -64 19 -83 -4 -6 -137 -169 -296 -360 -159
-192 -287 -351 -284 -353 3 -3 137 137 298 310 162 173 302 315 312 315 15 1
17 -11 17 -108 l0 -109 -203 -279 c-226 -311 -224 -307 -209 -302 5 2 109 125
231 272 l221 268 0 -55 c0 -49 2 -56 20 -56 18 0 20 -7 20 -74 l0 -75 -133
-208 c-73 -114 -136 -214 -141 -220 -4 -7 -3 -13 1 -13 5 0 69 84 143 186 125
173 152 205 166 191 3 -3 8 -42 11 -86 4 -56 10 -81 18 -81 8 0 15 -19 17 -53
4 -48 1 -60 -52 -157 -80 -147 -82 -150 -73 -150 4 1 35 44 68 98 47 75 61 92
63 74 2 -12 9 -22 16 -22 16 0 26 -44 26 -110 0 -39 4 -49 20 -53 17 -4 20
-14 20 -66 0 -54 2 -61 20 -61 13 0 20 -7 20 -20 0 -13 7 -20 20 -20 13 0 20
-7 20 -20 0 -14 7 -20 21 -20 12 0 23 -8 26 -19 3 -11 13 -21 24 -24 10 -3 19
-12 19 -21 0 -12 11 -16 49 -16 76 0 111 -10 111 -31 0 -15 8 -19 40 -19 33 0
40 3 40 20 0 16 7 20 38 20 20 0 47 3 60 6 19 6 22 2 23 -22 l1 -29 10 28 c5
15 16 27 24 27 8 0 14 6 14 14 0 14 42 26 91 26 20 0 29 5 29 16 0 9 9 18 19
21 11 3 21 13 24 24 4 15 14 19 46 19 34 0 41 3 41 20 0 11 6 20 14 20 11 0 5
-33 -24 -145 -21 -80 -35 -145 -31 -145 4 0 27 63 51 141 24 78 50 143 57 146
7 3 13 14 13 24 0 15 7 19 40 19 34 0 40 3 40 21 0 12 8 23 20 26 11 3 20 11
20 18 0 7 19 16 45 19 36 6 45 11 45 27 0 10 7 19 15 19 11 0 14 -7 10 -22
-11 -45 -95 -492 -95 -503 1 -30 24 47 85 292 l69 273 37 0 c28 0 38 5 42 20
3 12 14 20 26 20 14 0 21 6 21 20 0 16 7 20 35 20 30 0 35 -3 35 -22 0 -13
-18 -162 -40 -333 -61 -471 -56 -466 39 34 38 200 73 366 78 370 5 3 12 14 16
24 5 12 17 17 47 17 33 0 40 3 40 20 0 13 7 20 20 20 13 0 20 7 20 20 0 11 6
20 13 20 10 0 8 -69 -9 -337 -27 -433 -34 -573 -27 -548 3 11 31 223 62 470
l56 450 33 3 c24 2 32 8 32 23 0 16 7 19 40 19 l40 0 0 -502 c0 -276 3 -499 6
-496 3 4 20 240 37 525 l32 518 30 0 c23 0 31 -5 33 -22 3 -19 10 -23 37 -23
42 0 37 40 72 -545 l28 -460 3 463 2 462 35 0 c28 0 35 -4 35 -20 0 -13 7 -20
20 -20 13 0 20 -7 20 -19 0 -14 8 -21 27 -23 l28 -3 50 -402 c27 -221 53 -405
57 -408 4 -4 5 17 2 46 -7 79 -44 664 -44 694 0 20 5 25 25 25 18 0 25 -5 25
-20 0 -13 7 -20 20 -20 13 0 20 -7 20 -20 0 -17 7 -20 40 -20 33 0 40 -3 40
-19 0 -11 5 -21 10 -23 6 -2 37 -139 68 -305 32 -166 61 -306 66 -310 4 -4 5
8 2 27 -11 66 -66 505 -66 527 0 29 39 32 47 4 3 -11 13 -21 24 -24 10 -3 19
-12 19 -20 0 -11 12 -17 38 -19 30 -2 38 -7 40 -25 3 -18 10 -23 30 -23 27 0
28 -2 76 -195 26 -107 53 -198 58 -201 6 -4 8 1 5 12 -13 41 -67 338 -63 342
8 7 26 -9 26 -24 0 -10 12 -14 40 -14 33 0 40 -3 40 -20 0 -13 7 -20 20 -20
13 0 20 -7 20 -20 0 -17 7 -20 41 -20 31 0 42 -4 46 -18 2 -10 14 -22 25 -27
14 -7 28 -31 41 -68 24 -73 33 -68 14 7 -9 31 -11 56 -6 56 5 0 9 -9 9 -20 0
-17 7 -20 40 -20 33 0 40 -3 40 -20 0 -19 7 -20 185 -20 178 0 185 1 185 20 0
13 7 20 20 20 14 0 20 7 20 21 0 12 8 23 20 26 11 3 20 12 20 20 0 8 9 17 19
20 11 3 21 13 24 24 3 11 14 19 26 19 18 0 21 6 21 40 0 33 3 40 20 40 16 0
19 8 22 62 4 87 24 89 67 8 46 -86 51 -67 7 26 -42 89 -49 154 -16 154 18 0
20 7 20 54 0 72 10 116 26 116 7 0 14 14 16 32 3 30 12 19 112 -140 59 -95
111 -171 113 -168 3 3 -45 96 -106 207 -108 196 -126 239 -97 239 9 0 16 19
20 60 6 50 10 60 26 60 14 0 20 8 22 35 3 35 9 27 181 -210 99 -136 181 -244
184 -242 2 3 -79 136 -181 296 -147 231 -181 291 -165 291 17 0 19 7 19 79 0
76 1 79 25 83 22 5 51 -27 271 -294 135 -164 249 -297 251 -294 3 3 -110 163
-251 357 -254 349 -284 399 -236 399 15 0 20 7 20 29 0 16 3 42 6 59 6 29 15
20 316 -302 387 -412 358 -382 358 -370 0 11 -17 32 -404 497 l-238 288 7 44
c4 29 11 45 21 45 8 0 14 9 14 20 0 11 4 20 8 20 5 0 183 -164 397 -365 213
-201 390 -363 393 -361 3 3 -56 70 -130 148 -470 497 -538 573 -538 595 0 19
5 23 29 23 15 0 48 3 73 6 l45 6 179 -149 c441 -366 525 -435 530 -430 3 2
-139 139 -314 303 -242 227 -316 301 -303 306 9 4 42 7 74 7 44 1 57 4 57 16
0 43 59 8 351 -205 166 -121 305 -218 308 -215 3 4 1 9 -5 13 -6 4 -125 102
-265 217 -251 208 -253 210 -217 213 26 2 37 9 41 23 5 17 14 19 91 19 l87 0
211 -135 c117 -74 214 -132 217 -129 3 3 1 8 -5 12 -6 4 -98 70 -204 147
l-194 140 87 3 c79 3 87 5 87 22 0 18 7 20 78 20 75 0 80 -2 186 -60 60 -33
111 -58 114 -55 2 2 -38 31 -89 64 -151 95 -147 87 -46 96 60 5 87 11 87 20 0
12 50 25 103 25 16 0 27 5 27 14 0 8 16 16 40 20 31 5 40 11 40 26 0 13 7 20
20 20 13 0 20 7 20 20 0 13 7 20 20 20 13 0 20 7 20 20 0 13 7 20 19 20 16 0
20 8 23 43 2 35 7 43 26 45 22 3 22 6 22 143 0 87 4 139 10 139 19 0 -14 39
-35 42 -16 2 -21 12 -23 46 -3 34 -7 42 -23 42 -16 0 -19 7 -19 40 0 33 -3 40
-20 40 -17 0 -20 7 -20 39 0 30 -4 40 -20 44 -11 3 -20 13 -20 22 0 11 6 15
18 11 85 -25 247 -65 250 -61 6 6 -14 13 -175 65 -121 39 -133 45 -133 67 0
16 -6 23 -20 23 -17 0 -20 7 -20 39 0 33 -4 40 -22 43 -18 2 -24 10 -26 39 -2
27 -9 38 -23 42 -17 5 -28 37 -12 37 4 0 112 -20 241 -46 129 -25 242 -44 251
-42 9 2 -107 35 -258 73 -219 55 -275 73 -279 87 -2 10 -13 18 -23 18 -15 0
-19 7 -19 39 0 30 -4 40 -20 44 -16 4 -20 14 -20 46 0 23 3 41 8 41 4 -1 157
-20 340 -44 182 -23 332 -40 332 -37 0 4 -165 37 -367 75 -203 38 -376 73
-385 78 -10 5 -18 17 -18 27 0 10 -9 21 -20 24 -15 4 -20 14 -20 40 0 26 -5
36 -20 40 -25 7 -26 37 -1 37 10 0 193 -11 407 -25 213 -15 404 -25 423 -23
20 2 -171 29 -424 61 -253 32 -461 62 -463 67 -2 6 -12 10 -23 10 -16 0 -19 7
-19 40 0 33 -3 40 -20 40 -15 0 -20 7 -20 25 l0 25 513 1 c281 0 508 2 502 5
-8 3 -961 64 -1002 64 -9 0 -13 17 -13 50 0 43 3 50 20 50 13 0 20 7 20 19 0
23 -9 22 555 57 231 14 421 27 424 30 2 2 -209 5 -470 5 -261 1 -464 4 -451 6
18 4 22 11 22 45 0 31 4 41 20 45 11 3 20 12 20 19 0 8 8 18 18 21 9 4 22 12
28 17 6 6 190 34 410 61 219 28 383 51 363 53 -19 2 -175 -6 -346 -18 -418
-27 -383 -29 -383 20 0 33 4 40 19 40 10 0 21 9 24 20 3 11 12 20 20 20 10 0
17 11 19 32 l3 33 320 60 c176 33 310 61 298 63 -12 2 -129 -11 -260 -27 -302
-39 -283 -40 -283 5 0 27 5 37 19 41 11 3 21 13 24 24 3 11 14 19 26 19 18 0
21 6 21 40 0 33 3 40 20 40 11 0 20 6 20 14 0 9 59 28 192 62 106 26 187 49
181 51 -11 4 -311 -50 -355 -63 -10 -3 -18 -1 -18 5 0 6 9 11 20 11 14 0 20 7
20 21 0 12 8 23 20 26 15 4 20 14 20 40 0 26 5 36 19 40 11 3 21 13 24 24 3
10 12 19 21 19 12 0 16 10 16 40 0 36 3 40 25 40 15 0 25 6 25 14 0 7 20 19
45 26 25 7 48 17 52 23 4 6 0 8 -10 4 -8 -3 -32 -9 -51 -13 -32 -5 -36 -4 -36
15 0 14 6 21 20 21 17 0 20 7 20 40 0 33 3 40 20 40 19 0 20 7 20 139 0 130
-1 139 -20 144 -16 4 -20 14 -20 46 0 34 -3 41 -20 41 -13 0 -20 7 -20 20 0
14 -7 20 -21 20 -12 0 -23 8 -26 20 -3 11 -12 20 -20 20 -8 0 -17 9 -20 20 -4
14 -17 22 -44 26 -23 4 -39 12 -39 20 0 9 -11 14 -27 14 -68 0 -101 12 -106
37 -4 20 3 28 44 48 42 22 71 45 54 45 -3 0 -41 -18 -85 -40 -90 -45 -130 -51
-130 -20 0 18 -7 20 -81 20 -72 0 -81 2 -86 19 -4 16 -15 21 -51 23 l-46 3
175 109 c201 126 184 115 177 121 -2 3 -86 -40 -186 -95 -172 -95 -183 -100
-240 -100 -78 0 -122 9 -122 26 0 9 -18 14 -56 16 l-57 3 248 180 c137 99 253
183 259 187 6 4 8 9 5 12 -2 3 -121 -69 -264 -160 -143 -91 -269 -171 -280
-178 -14 -8 -37 -9 -82 -3 -52 7 -63 12 -63 27 0 15 -9 20 -40 22 l-39 3 291
240 c160 132 298 245 307 252 9 6 13 14 10 17 -3 3 -160 -107 -350 -245 -189
-138 -345 -246 -347 -240 -2 7 -36 11 -83 11 -69 0 -79 2 -79 18 0 10 145 153
346 341 190 178 343 325 340 328 -3 3 -182 -142 -398 -321 -216 -179 -398
-326 -405 -326 -7 0 -13 9 -13 20 0 17 -7 20 -41 20 -37 0 -40 2 -37 24 2 16
126 156 353 396 481 511 478 512 -41 23 -189 -178 -345 -323 -348 -323 -3 0
-6 29 -6 65 0 58 -2 65 -20 65 -11 0 -20 5 -20 11 0 6 131 168 291 361 160
192 293 357 295 366 3 10 -12 -1 -33 -24 -21 -22 -155 -166 -298 -318 -230
-246 -260 -275 -263 -252 -2 14 -9 26 -16 26 -15 0 -31 133 -19 153 4 7 101
142 216 300 115 158 207 290 204 293 -2 3 -105 -117 -228 -267 -246 -297 -236
-291 -238 -168 -1 48 -4 57 -21 62 -15 4 -20 14 -20 38 0 25 35 87 146 262 80
126 143 231 141 234 -3 2 -67 -82 -144 -187 -116 -162 -138 -188 -141 -166 -2
18 -9 26 -23 26 -17 0 -19 8 -19 85 0 78 -2 85 -20 85 -34 0 -24 36 51 172 39
71 69 131 67 134 -3 3 -34 -41 -69 -97 l-64 -102 -3 51 c-2 43 -6 52 -21 52
-21 0 -31 35 -31 110 0 39 -4 49 -20 53 -16 4 -20 14 -20 46 0 29 -4 41 -14
41 -9 0 -17 15 -21 40 -5 30 -11 40 -26 40 -12 0 -19 7 -19 20 0 13 -7 20 -20
20 -13 0 -20 7 -20 20 0 15 -7 20 -27 20 -55 0 -103 13 -103 26 0 11 -25 14
-119 14 -110 0 -119 -1 -124 -20 -3 -11 -10 -20 -16 -20 -6 0 -8 8 -5 18 5 16
5 16 -9 0 -8 -10 -22 -18 -31 -18 -9 0 -16 -6 -16 -14 0 -10 -16 -17 -45 -22
-35 -5 -45 -10 -45 -25 0 -15 -7 -19 -40 -19 -33 0 -40 -3 -40 -20 0 -17 -7
-20 -40 -20 -33 0 -40 -3 -40 -20 0 -11 -5 -20 -11 -20 -6 0 -8 7 -5 16 14 37
67 257 62 261 -2 3 -28 -68 -57 -156 -52 -159 -53 -161 -85 -167 -20 -4 -34
-13 -37 -25 -4 -14 -14 -19 -40 -19 -26 0 -36 -5 -40 -20 -4 -15 -14 -20 -40
-20 -27 0 -36 -5 -40 -22 -4 -12 -9 -20 -12 -17 -5 5 76 450 92 504 3 11 2 16
-3 12 -5 -4 -40 -130 -79 -280 -69 -270 -70 -272 -97 -275 -20 -2 -28 -9 -28
-23 0 -16 -7 -19 -40 -19 -34 0 -40 -3 -40 -21 0 -12 -8 -23 -20 -26 -11 -3
-20 -12 -20 -19 0 -8 -7 -14 -15 -14 -8 0 -15 8 -15 18 0 9 20 172 44 362 40
307 47 386 32 339 -2 -8 -32 -162 -66 -344 -88 -471 -75 -425 -116 -425 -27 0
-34 -4 -34 -20 0 -17 -7 -20 -39 -20 -31 0 -40 -4 -44 -22 -4 -12 -9 -20 -12
-17 -4 5 35 675 49 838 3 30 1 50 -3 45 -4 -5 -31 -200 -60 -434 -63 -518 -59
-490 -81 -490 -12 0 -20 -9 -22 -22 -2 -18 -10 -24 -39 -26 -27 -2 -38 -9 -42
-23 -3 -10 -10 -19 -16 -19 -8 0 -12 155 -13 523 l-3 522 -28 -460 c-15 -253
-31 -488 -34 -522 l-6 -63 -34 0 c-26 0 -36 5 -40 20 -4 14 -14 20 -34 20 -25
0 -29 4 -29 28 -1 72 -60 965 -65 970 -3 3 -5 -200 -5 -451z m-536 -672 l737
-467 292 168 c768 442 1229 704 1239 707 15 3 6 40 214 -888 103 -456 188
-832 190 -834 3 -4 79 -24 1069 -291 352 -95 641 -174 643 -175 2 -2 -17 -34
-41 -71 -24 -38 -238 -376 -475 -751 l-432 -682 212 -368 c116 -202 314 -548
440 -767 126 -220 225 -402 221 -406 -4 -4 -120 -32 -258 -63 -1237 -278
-1460 -329 -1463 -331 -1 -2 -104 -378 -228 -837 -125 -459 -229 -844 -233
-856 -6 -20 -12 -18 -121 51 -63 40 -387 245 -720 456 -333 211 -619 392 -637
402 l-32 19 -378 -217 c-208 -120 -553 -318 -767 -441 -214 -123 -390 -222
-393 -220 -6 7 -27 96 -213 927 -94 421 -174 774 -178 784 -6 15 -48 30 -183
66 -96 26 -478 130 -849 230 -371 100 -676 183 -678 185 -6 6 14 38 480 774
l460 726 -15 30 c-8 16 -162 287 -342 600 -454 789 -516 899 -518 909 -2 10
-41 1 958 225 417 94 762 174 766 179 4 4 50 169 104 367 185 691 357 1320
362 1328 3 5 10 6 17 4 7 -3 344 -215 750 -472z"/>
<path d="M4855 7853 c-803 -55 -1552 -492 -2006 -1172 -378 -566 -522 -1242
-408 -1919 72 -430 265 -858 546 -1212 93 -116 288 -312 403 -404 369 -295
803 -485 1275 -558 203 -31 568 -31 774 1 448 69 844 234 1204 503 147 110
411 371 513 508 363 485 544 1022 544 1610 0 529 -153 1034 -445 1470 -532
795 -1440 1239 -2400 1173z m402 -84 c515 -43 1003 -238 1402 -560 118 -95
307 -284 403 -404 283 -354 474 -805 540 -1275 17 -125 17 -515 0 -640 -66
-470 -257 -921 -540 -1275 -96 -120 -285 -309 -403 -404 -555 -448 -1274 -644
-1979 -541 -960 141 -1766 821 -2069 1746 -86 263 -124 503 -124 794 0 359 63
673 199 999 230 548 679 1027 1214 1296 419 210 895 303 1357 264z"/>
<path d="M4925 7473 c-658 -40 -1261 -357 -1662 -873 -203 -261 -360 -598
-426 -915 -35 -166 -47 -287 -47 -477 0 -361 68 -662 221 -977 266 -549 722
-958 1296 -1161 391 -138 858 -162 1268 -65 762 181 1386 754 1629 1494 376
1149 -209 2385 -1338 2826 -205 80 -415 127 -656 145 -129 10 -175 10 -285 3z
m480 -112 c650 -114 1189 -484 1525 -1048 279 -468 368 -1033 249 -1581 -135
-624 -581 -1190 -1162 -1475 -203 -100 -381 -157 -616 -199 -184 -32 -520 -32
-706 1 -474 84 -874 295 -1205 638 -237 244 -400 510 -504 823 -228 685 -107
1423 330 2007 79 104 269 299 374 383 329 262 716 422 1136 470 131 15 442 4
579 -19z"/>
</g>
</svg>
